# xmcd
#
# Track frame offsets: 
#        150
#        13315
#        28000
#        37755
#        56525
#        69282
#        79917
#        92080
#        103650
#        115670
#        127750
#        140592
#        154390
#        167095
#        178060
#
# Disc length: 2598 seconds
#
# Revision: 3
# Processed by: cddbd v1.5.2PL0 Copyright (c) Steve Scherf et al.
# Submitted via: ExactAudioCopy v1.0b4
#
DISCID=c00a240f
DTITLE=Various Artist - Blues Classics [Living The Blues] 1960-1964  CD 2
DYEAR=1900
DGENRE=Blues
TTITLE0=Little Willie John - Sleep
TTITLE1=Johnny 'Guitar' Watson - Cuttin' In
TTITLE2=Rosco Gordon - Just A Little Bit
TTITLE3=Bobby Bland - Stormy Monday Blues
TTITLE4=Earl King - Come On [Part 1]
TTITLE5=Buddy Guy - The First Time I Met  The Blues
TTITLE6=Elmore James - The Sun Is Shining
TTITLE7=Freddy King - San-Ho-Zay
TTITLE8=Little Junior Parker - In The Dark
TTITLE9=Earl Hooker - Blue Guitar
TTITLE10=Jimmy Reed - Shame Shame
TTITLE11=Sugar Pie DeSanto - I Want To Know
TTITLE12=Smokey Smothers - Come On Rock Little Girl
TTITLE13=King Pins - It Won't Be This Way [Always]
TTITLE14=Ray Charles - Don't Let The Sun Catch You Crying
EXTD=
EXTT0=
EXTT1=
EXTT2=
EXTT3=
EXTT4=
EXTT5=
EXTT6=
EXTT7=
EXTT8=
EXTT9=
EXTT10=
EXTT11=
EXTT12=
EXTT13=
EXTT14=
PLAYORDER=
